<svg width="155" height="184" viewBox="0 0 155 184" fill="none" xmlns="http://www.w3.org/2000/svg">
<g opacity="0.2" clip-path="url(#clip0_2234_8803)">
<path d="M13.0975 0C-65.4557 0 -129 63.5443 -129 142.097C-129 220.456 -65.4557 284.195 13.0975 284.195C91.4557 284.195 155.195 220.651 155.195 142.097C155 63.5443 91.4557 0 13.0975 0ZM13.0975 275.034C-60.3878 275.034 -119.839 215.583 -119.839 142.097C-119.839 68.6122 -60.3878 9.16129 13.0975 9.16129C86.5827 9.16129 146.034 68.6122 146.034 142.097C146.034 215.388 86.3878 275.034 13.0975 275.034Z" fill="white"/>
<path d="M13.0988 30.6025C-48.3014 30.6025 -98.2012 80.5023 -98.2012 141.902C-98.2012 203.303 -48.3014 253.202 13.0988 253.202C74.4989 253.202 124.399 203.498 124.399 142.097C124.399 80.5023 74.4989 30.6025 13.0988 30.6025ZM13.0988 236.244C-38.9452 236.244 -81.243 193.946 -81.243 141.902C-81.243 89.8585 -38.9452 47.5607 13.0988 47.5607C65.1427 47.5607 107.441 89.8585 107.441 141.902C107.441 193.946 65.1427 236.244 13.0988 236.244Z" fill="white"/>
<path d="M13.098 79.5273C-21.403 79.5273 -49.4717 107.596 -49.4717 142.097C-49.4717 176.598 -21.598 204.667 13.098 204.667C47.599 204.667 75.6677 176.598 75.6677 142.097C75.4727 107.596 47.599 79.5273 13.098 79.5273ZM13.098 175.623C-5.41951 175.623 -20.4284 160.614 -20.4284 142.097C-20.4284 123.579 -5.41951 108.571 13.098 108.571C31.6155 108.571 46.6244 123.579 46.6244 142.097C46.6244 160.614 31.6155 175.623 13.098 175.623Z" fill="white"/>
</g>
<defs>
<clipPath id="clip0_2234_8803">
<rect width="284" height="284" fill="white" transform="translate(-129)"/>
</clipPath>
</defs>
</svg>
